<?xml version="1.0" standalone="no"?>
<!DOCTYPE svg PUBLIC "-//W3C//DTD SVG 20010904//EN"
 "http://www.w3.org/TR/2001/REC-SVG-20010904/DTD/svg10.dtd">
<svg version="1.0" xmlns="http://www.w3.org/2000/svg"
 width="1024.000000pt" height="1024.000000pt" viewBox="0 0 1024.000000 1024.000000"
 preserveAspectRatio="xMidYMid meet">

<g transform="translate(0.000000,1024.000000) scale(0.100000,-0.100000)"
fill="#000000" stroke="none">
<path d="M6417 6427 c-288 -79 -451 -265 -486 -554 -25 -201 41 -382 192 -536
106 -107 198 -149 370 -167 136 -14 239 3 353 60 67 33 96 55 163 126 44 48
81 92 81 99 0 8 16 43 35 79 96 180 85 414 -26 603 -52 88 -153 182 -248 232
-105 55 -158 70 -261 76 -70 4 -101 1 -173 -18z m226 -184 c79 -55 107 -146
72 -231 -42 -99 -150 -146 -239 -102 -51 24 -112 97 -127 152 -14 54 14 141
54 170 79 56 171 60 240 11z"/>
<path d="M3418 6421 c-239 -65 -411 -243 -464 -480 -20 -91 -15 -261 11 -336
44 -128 160 -277 278 -356 91 -60 169 -81 312 -82 200 -1 314 41 435 163 91
91 129 155 177 291 34 98 35 107 30 203 -14 283 -188 518 -441 595 -88 27
-241 28 -338 2z m237 -160 c49 -22 99 -77 115 -126 9 -28 9 -47 0 -83 -24 -95
-96 -151 -197 -152 -43 0 -58 5 -95 33 -88 67 -112 133 -82 224 20 61 45 85
110 108 53 19 101 18 149 -4z"/>
<path d="M4995 5300 c-237 -6 -259 -12 -290 -76 -29 -61 -7 -133 52 -171 20
-14 48 -18 111 -18 l83 0 -7 -45 c-4 -25 -8 -126 -8 -226 l-1 -181 -29 -42
c-30 -42 -80 -87 -126 -111 -43 -24 -148 -17 -205 12 -64 33 -77 48 -118 139
-37 81 -50 96 -94 108 -37 11 -78 -6 -117 -48 -41 -43 -48 -121 -17 -185 31
-63 96 -133 164 -177 214 -138 466 -121 630 43 l59 58 66 -60 c156 -144 345
-174 537 -87 95 43 187 131 215 204 38 102 21 194 -43 233 -72 44 -138 12
-177 -87 -32 -80 -54 -109 -108 -140 -91 -53 -189 -32 -285 60 -78 76 -81 86
-83 304 -1 105 -5 196 -8 202 -5 8 18 11 74 11 134 0 190 39 190 133 0 56 -24
104 -68 133 -31 21 -68 22 -397 14z"/>
<path d="M2521 4763 c-40 -21 -68 -57 -75 -94 -5 -33 23 -97 59 -129 26 -24
31 -25 143 -22 143 4 183 13 216 53 35 41 42 75 25 123 -23 66 -60 80 -209 84
-105 3 -130 0 -159 -15z"/>
<path d="M7283 4770 c-31 -13 -63 -68 -63 -108 0 -41 19 -78 60 -117 31 -29
32 -30 168 -33 166 -5 200 5 231 67 38 74 20 145 -44 175 -43 21 -315 33 -352
16z"/>
</g>
</svg>
